<svg xmlns="http://www.w3.org/2000/svg" width="30.666" height="30.666" viewBox="0 0 57.666 64.857">
  <path id="Icon_awesome-paw" data-name="Icon awesome-paw" d="M29.865,27.849c-9.264,0-22.4,16.367-22.4,26.7,0,4.653,3.128,7.433,8.369,7.433,5.7,0,9.46-3.344,14.029-3.344,4.609,0,8.382,3.344,14.029,3.344,5.241,0,8.369-2.78,8.369-7.433C52.264,44.215,39.129,27.849,29.865,27.849ZM12.684,26.167c-1.213-4.62-4.951-7.611-8.348-6.684S-.831,24.909.382,29.528,5.333,37.14,8.73,36.212s5.167-5.425,3.954-10.045Zm9.883-2.77c3.609-1.085,5.415-6.658,4.034-12.447s-5.427-9.6-9.036-8.515S12.149,9.093,13.53,14.882,18.959,24.484,22.567,23.4Zm32.827-3.912c-3.4-.928-7.134,2.064-8.348,6.684S47.6,35.285,51,36.213s7.134-2.064,8.348-6.684S58.791,20.413,55.394,19.485ZM37.163,23.4c3.609,1.085,7.655-2.726,9.036-8.515S45.775,3.521,42.166,2.434,34.51,5.161,33.129,10.95s.425,11.362,4.034,12.447Z" transform="translate(0.001 -2.25)" fill="#c179c9"/>
</svg>
