<svg xmlns="http://www.w3.org/2000/svg" width="59.73" height="59.41" viewBox="0 0 59.73 59.41">
  <defs>
    <style>
      .cls-1 {
        fill: #c179c9;
      }
    </style>
  </defs>
  <path id="Icon_awesome-beer" data-name="Icon awesome-beer" class="cls-1" d="M49.064,10.737h-6.4v-5.3a3.191,3.191,0,0,0-3.2-3.183H3.2A3.191,3.191,0,0,0,0,5.433V58.477A3.191,3.191,0,0,0,3.2,61.66H39.464a3.191,3.191,0,0,0,3.2-3.183V52.893l10.747-4.771a10.618,10.618,0,0,0,6.319-9.688V21.346A10.65,10.65,0,0,0,49.064,10.737Zm2.133,27.7a2.124,2.124,0,0,1-1.264,1.938L42.664,43.6V19.224h6.4A2.13,2.13,0,0,1,51.2,21.346ZM27.732,48.929A2.128,2.128,0,0,1,25.6,46.807V17.1a2.133,2.133,0,0,1,4.266,0v29.7A2.128,2.128,0,0,1,27.732,48.929Zm-12.8,0A2.128,2.128,0,0,1,12.8,46.807V17.1a2.133,2.133,0,0,1,4.266,0v29.7A2.128,2.128,0,0,1,14.932,48.929Z" transform="translate(0 -2.25)"/>
</svg>
