<svg xmlns="http://www.w3.org/2000/svg" width="30.666" height="30.857" viewBox="0 0 71.124 64.523">
  <defs>
    <style>
      .cls-1 {
        fill: #c179c9;
      }
    </style>
  </defs>
  <path id="Icon_awesome-glass-cheers" data-name="Icon awesome-glass-cheers" class="cls-1" d="M71.055,54.638a4.263,4.263,0,0,0-5.8-2.722L62.8,53.075l-4.3-12.84a16.023,16.023,0,0,0,3.834-19.253L52.708,2.019A3.37,3.37,0,0,0,48.263.306l-12.7,5.973L22.86.306a3.36,3.36,0,0,0-4.445,1.714L8.791,20.983a16.017,16.017,0,0,0,3.834,19.241l-4.3,12.84L5.868,51.9a4.266,4.266,0,0,0-5.8,2.722,1.062,1.062,0,0,0,.478,1.323l18.036,8.493a.845.845,0,0,0,1.156-.542,5.314,5.314,0,0,0-2.4-6.59L14.881,56.15,19.259,43.1a11.668,11.668,0,0,0,1.456.164c5.745,0,11.046-4.171,12.6-10.748l2.245-9.5,2.245,9.5c1.556,6.577,6.856,10.748,12.6,10.748a11.668,11.668,0,0,0,1.456-.164L56.231,56.15l-2.456,1.159a5.3,5.3,0,0,0-2.4,6.59.849.849,0,0,0,1.156.542l18.047-8.493A1.058,1.058,0,0,0,71.055,54.638ZM30.661,20.428,18.2,14.569,22.259,6.58l10.5,4.939Zm9.8,0-2.1-8.908,10.5-4.939,4.056,7.989L40.462,20.428Z" transform="translate(0.002 0.004)"/>
</svg>
