<svg xmlns="http://www.w3.org/2000/svg" width="30.666" height="30.666" viewBox="0 0 71.124 64.523">
  <path id="Icon_awesome-dollar-sign" data-name="Icon awesome-dollar-sign" d="M43.392,27.228l-22.4-3.686c-2.593-.42-4.4-1.785-4.4-3.3,0-1.9,2.738-3.441,6.119-3.441H36.463a20.244,20.244,0,0,1,7.094,1.225,5.257,5.257,0,0,0,4.045-.233l7.219-3.966c1.473-.8,1.265-2.147-.373-2.858A45.659,45.659,0,0,0,36.5,7.466v-5.6C36.5.84,35.011,0,33.185,0H26.547c-1.825,0-3.319.84-3.319,1.867v5.6H22.71C9.5,7.466-1.125,13.848.1,21.419.97,26.8,8.272,31.172,17.482,32.688l21.263,3.5c2.593.432,4.4,1.785,4.4,3.3,0,1.9-2.738,3.441-6.119,3.441H23.27a20.244,20.244,0,0,1-7.094-1.225,5.257,5.257,0,0,0-4.045.233L4.911,45.906c-1.473.8-1.265,2.147.373,2.858a45.659,45.659,0,0,0,17.944,3.5v5.6c0,1.027,1.494,1.867,3.319,1.867h6.638c1.825,0,3.319-.84,3.319-1.867V52.24c9.667-.1,18.732-3.336,21.926-8.481C62.891,36.573,55.4,29.2,43.392,27.228Z" transform="translate(-0.003)" fill="#c179c9"/>
</svg>
