<svg xmlns="http://www.w3.org/2000/svg" width="30.666" height="30.857" viewBox="0 0 59.73 59.41">
  <defs>
    <style>
      .cls-1 {
        fill: #c179c9;
      }
    </style>
  </defs>
  <path id="Icon_awesome-birthday-cake" data-name="Icon awesome-birthday-cake" class="cls-1" d="M59.73,44.557c-3.736,0-4.168-3.713-9.933-3.713-5.79,0-6.243,3.713-9.966,3.713-3.692,0-4.194-3.713-9.966-3.713-5.712,0-6.3,3.713-9.933,3.713-3.753,0-4.16-3.713-9.966-3.713S3.746,44.557,0,44.557V35.275C0,32.2,2.867,29.7,6.4,29.7H8.533V13h8.533V29.7H25.6V13h8.533V29.7h8.533V13H51.2V29.7H53.33c3.533,0,6.4,2.495,6.4,5.57Zm0,14.853H0V48.271c5.78,0,6.235-3.713,9.966-3.713s4.167,3.713,9.966,3.713c5.712,0,6.3-3.713,9.933-3.713,3.753,0,4.16,3.713,9.966,3.713,5.781,0,6.235-3.713,9.966-3.713,3.665,0,4.167,3.713,9.933,3.713ZM12.8,11.139A4.006,4.006,0,0,1,8.533,7.426C8.533,3.829,12.8,4.757,12.8,0c1.6,0,4.266,3.423,4.266,6.5S15.166,11.139,12.8,11.139Zm17.066,0A4.006,4.006,0,0,1,25.6,7.426c0-3.6,4.266-2.669,4.266-7.426,1.6,0,4.266,3.423,4.266,6.5S32.232,11.139,29.865,11.139Zm17.066,0a4.006,4.006,0,0,1-4.266-3.713c0-3.6,4.266-2.669,4.266-7.426,1.6,0,4.266,3.423,4.266,6.5S49.3,11.139,46.931,11.139Z"/>
</svg>
