<svg xmlns="http://www.w3.org/2000/svg" width="30.666" height="30.857" viewBox="0 0 59.73 59.41">
  <defs>
    <style>
      .cls-1 {
        fill: #c179c9;
      }
    </style>
  </defs>
  <path id="Icon_awesome-umbrella-beach" data-name="Icon awesome-umbrella-beach" class="cls-1" d="M10.768,15.885,20.3,20.2C23.582,10.738,28.343,3.457,33.27.044,24.322-.523,15.652,4.333,10.076,13.017a2.066,2.066,0,0,0,.692,2.868Zm12.343,5.588L45.367,31.549c3.337-14.084,1.745-26.88-3.979-29.47a5.164,5.164,0,0,0-2.155-.464c-5.415,0-11.971,8.026-16.123,19.859ZM48.668,7.02a31.732,31.732,0,0,1,1.232,6.4A61.231,61.231,0,0,1,48.132,32.8l9.577,4.335c.942.426,1.989-.4,2.013-1.644.217-11.1-3.911-21.749-11.054-28.47Zm3.595,44.961h-22.3l6.061-20.71L30.412,28.73l-6.8,23.25H1.493A1.7,1.7,0,0,0,0,53.838v3.714A1.706,1.706,0,0,0,1.493,59.41h50.77a1.706,1.706,0,0,0,1.493-1.858V53.838a1.7,1.7,0,0,0-1.493-1.857Z" transform="translate(0 0)"/>
</svg>
