<svg xmlns="http://www.w3.org/2000/svg" viewBox="0.562 0.562 100 100">
	<path fill="rgba(193,121,201,1)" id="Icon_awesome_arrow_circle_left" d="M 50.56250381469727 100.5625 C 22.9415340423584 100.5625 0.5624998807907104 78.18346405029297 0.5624998807907104 50.56249237060547 C 0.5624998807907104 22.9415340423584 22.9415340423584 0.5624999403953552 50.56250381469727 0.5624999403953552 C 78.18346405029297 0.5624999403953552 100.5625 22.9415340423584 100.5625 50.56249237060547 C 100.5625 78.18346405029297 78.18346405029297 100.5625 50.56250381469727 100.5625 Z M 56.38911056518555 71.61088562011719 L 41.16733169555664 57.01411056518555 L 77.98185729980469 57.01411056518555 C 80.66329956054688 57.01411056518555 82.82056427001953 54.85685348510742 82.82056427001953 52.1754035949707 L 82.82056427001953 48.94958877563477 C 82.82056427001953 46.26814270019531 80.66329956054688 44.11088180541992 77.98185729980469 44.11088180541992 L 41.16733169555664 44.11088180541992 L 56.38911056518555 29.51411437988281 C 58.34475708007812 27.63911056518555 58.38507843017578 24.51411247253418 56.46975708007812 22.59878921508789 L 54.25200653076172 20.40121078491211 C 52.35685348510742 18.50604820251465 49.29234313964844 18.50604820251465 47.41733169555664 20.40121078491211 L 20.66330718994141 47.13507843017578 C 18.76814460754395 49.03023910522461 18.76814460754395 52.09475708007812 20.66330718994141 53.96975708007812 L 47.41733169555664 80.72378540039062 C 49.31250381469727 82.61895751953125 52.37701416015625 82.61895751953125 54.25200653076172 80.72378540039062 L 56.46975708007812 78.52620697021484 C 58.38507843017578 76.61088562011719 58.34475708007812 73.48588562011719 56.38911056518555 71.61088562011719 Z">
	</path>
</svg>
